<mxfile host="app.diagrams.net" agent="Mozilla/5.0 (X11; Linux x86_64) AppleWebKit/537.36 (KHTML, like Gecko) Chrome/135.0.0.0 Safari/537.36" version="26.2.14">
  <diagram name="Page-1" id="hL35ycMDLIjViWm5soiQ">
    <mxGraphModel dx="1360" dy="759" grid="1" gridSize="10" guides="1" tooltips="1" connect="1" arrows="1" fold="1" page="1" pageScale="1" pageWidth="850" pageHeight="1100" math="0" shadow="0">
      <root>
        <mxCell id="0" />
        <mxCell id="1" parent="0" />
        <mxCell id="aZLtah4FaSohj_3vMDlb-13" style="edgeStyle=orthogonalEdgeStyle;rounded=0;orthogonalLoop=1;jettySize=auto;html=1;exitX=0.5;exitY=1;exitDx=0;exitDy=0;entryX=0.5;entryY=0;entryDx=0;entryDy=0;" edge="1" parent="1" source="aZLtah4FaSohj_3vMDlb-1" target="aZLtah4FaSohj_3vMDlb-2">
          <mxGeometry relative="1" as="geometry" />
        </mxCell>
        <mxCell id="aZLtah4FaSohj_3vMDlb-1" value="Start" style="ellipse;whiteSpace=wrap;html=1;" vertex="1" parent="1">
          <mxGeometry x="160" y="50" width="120" height="80" as="geometry" />
        </mxCell>
        <mxCell id="aZLtah4FaSohj_3vMDlb-14" style="edgeStyle=orthogonalEdgeStyle;rounded=0;orthogonalLoop=1;jettySize=auto;html=1;exitX=0.5;exitY=1;exitDx=0;exitDy=0;entryX=0.5;entryY=0;entryDx=0;entryDy=0;" edge="1" parent="1" source="aZLtah4FaSohj_3vMDlb-2" target="aZLtah4FaSohj_3vMDlb-4">
          <mxGeometry relative="1" as="geometry" />
        </mxCell>
        <mxCell id="aZLtah4FaSohj_3vMDlb-2" value="State = &quot;EStop&quot;" style="ellipse;whiteSpace=wrap;html=1;" vertex="1" parent="1">
          <mxGeometry x="160" y="160" width="120" height="80" as="geometry" />
        </mxCell>
        <mxCell id="aZLtah4FaSohj_3vMDlb-15" style="edgeStyle=orthogonalEdgeStyle;rounded=0;orthogonalLoop=1;jettySize=auto;html=1;exitX=1;exitY=0.5;exitDx=0;exitDy=0;entryX=0.5;entryY=0;entryDx=0;entryDy=0;" edge="1" parent="1" source="aZLtah4FaSohj_3vMDlb-4" target="aZLtah4FaSohj_3vMDlb-5">
          <mxGeometry relative="1" as="geometry" />
        </mxCell>
        <mxCell id="aZLtah4FaSohj_3vMDlb-16" style="edgeStyle=orthogonalEdgeStyle;rounded=0;orthogonalLoop=1;jettySize=auto;html=1;exitX=1;exitY=0.5;exitDx=0;exitDy=0;entryX=0.5;entryY=0;entryDx=0;entryDy=0;" edge="1" parent="1" source="aZLtah4FaSohj_3vMDlb-4" target="aZLtah4FaSohj_3vMDlb-6">
          <mxGeometry relative="1" as="geometry" />
        </mxCell>
        <mxCell id="aZLtah4FaSohj_3vMDlb-17" style="edgeStyle=orthogonalEdgeStyle;rounded=0;orthogonalLoop=1;jettySize=auto;html=1;exitX=1;exitY=0.5;exitDx=0;exitDy=0;entryX=0.5;entryY=0;entryDx=0;entryDy=0;" edge="1" parent="1" source="aZLtah4FaSohj_3vMDlb-4" target="aZLtah4FaSohj_3vMDlb-7">
          <mxGeometry relative="1" as="geometry" />
        </mxCell>
        <mxCell id="aZLtah4FaSohj_3vMDlb-4" value="state = &quot;IDLE&quot;" style="ellipse;whiteSpace=wrap;html=1;" vertex="1" parent="1">
          <mxGeometry x="160" y="280" width="120" height="80" as="geometry" />
        </mxCell>
        <mxCell id="aZLtah4FaSohj_3vMDlb-18" style="edgeStyle=orthogonalEdgeStyle;rounded=0;orthogonalLoop=1;jettySize=auto;html=1;exitX=0.5;exitY=1;exitDx=0;exitDy=0;entryX=1;entryY=0.5;entryDx=0;entryDy=0;" edge="1" parent="1" source="aZLtah4FaSohj_3vMDlb-5" target="aZLtah4FaSohj_3vMDlb-9">
          <mxGeometry relative="1" as="geometry" />
        </mxCell>
        <mxCell id="aZLtah4FaSohj_3vMDlb-5" value="state = &quot;Mould Fill&quot;" style="ellipse;whiteSpace=wrap;html=1;" vertex="1" parent="1">
          <mxGeometry x="305" y="370" width="120" height="80" as="geometry" />
        </mxCell>
        <mxCell id="aZLtah4FaSohj_3vMDlb-19" value="" style="edgeStyle=orthogonalEdgeStyle;rounded=0;orthogonalLoop=1;jettySize=auto;html=1;exitX=0.5;exitY=1;exitDx=0;exitDy=0;entryX=1;entryY=0.5;entryDx=0;entryDy=0;" edge="1" parent="1" source="aZLtah4FaSohj_3vMDlb-6" target="aZLtah4FaSohj_3vMDlb-9">
          <mxGeometry relative="1" as="geometry" />
        </mxCell>
        <mxCell id="aZLtah4FaSohj_3vMDlb-6" value="state = &quot;Tundish Fill&quot;" style="ellipse;whiteSpace=wrap;html=1;" vertex="1" parent="1">
          <mxGeometry x="460" y="370" width="120" height="80" as="geometry" />
        </mxCell>
        <mxCell id="aZLtah4FaSohj_3vMDlb-20" style="edgeStyle=orthogonalEdgeStyle;rounded=0;orthogonalLoop=1;jettySize=auto;html=1;exitX=0.5;exitY=1;exitDx=0;exitDy=0;entryX=1;entryY=0.5;entryDx=0;entryDy=0;" edge="1" parent="1" source="aZLtah4FaSohj_3vMDlb-7" target="aZLtah4FaSohj_3vMDlb-9">
          <mxGeometry relative="1" as="geometry" />
        </mxCell>
        <mxCell id="aZLtah4FaSohj_3vMDlb-7" value="state = &quot;Auto Fill&quot;" style="ellipse;whiteSpace=wrap;html=1;" vertex="1" parent="1">
          <mxGeometry x="620" y="370" width="120" height="80" as="geometry" />
        </mxCell>
        <mxCell id="aZLtah4FaSohj_3vMDlb-21" style="edgeStyle=orthogonalEdgeStyle;rounded=0;orthogonalLoop=1;jettySize=auto;html=1;exitX=0.5;exitY=1;exitDx=0;exitDy=0;entryX=0.5;entryY=0;entryDx=0;entryDy=0;" edge="1" parent="1" source="aZLtah4FaSohj_3vMDlb-9" target="aZLtah4FaSohj_3vMDlb-10">
          <mxGeometry relative="1" as="geometry" />
        </mxCell>
        <mxCell id="aZLtah4FaSohj_3vMDlb-9" value="state = &quot;Ready&quot;&lt;div&gt;Experiment = &quot;Reset&quot;&lt;/div&gt;" style="ellipse;whiteSpace=wrap;html=1;" vertex="1" parent="1">
          <mxGeometry x="160" y="480" width="120" height="80" as="geometry" />
        </mxCell>
        <mxCell id="aZLtah4FaSohj_3vMDlb-22" style="edgeStyle=orthogonalEdgeStyle;rounded=0;orthogonalLoop=1;jettySize=auto;html=1;exitX=0.5;exitY=1;exitDx=0;exitDy=0;entryX=0.5;entryY=0;entryDx=0;entryDy=0;" edge="1" parent="1" source="aZLtah4FaSohj_3vMDlb-10" target="aZLtah4FaSohj_3vMDlb-11">
          <mxGeometry relative="1" as="geometry" />
        </mxCell>
        <mxCell id="aZLtah4FaSohj_3vMDlb-10" value="state = &quot;Ready&quot;&lt;div&gt;Experiment = &quot;Start&quot;&lt;/div&gt;" style="ellipse;whiteSpace=wrap;html=1;" vertex="1" parent="1">
          <mxGeometry x="160" y="600" width="120" height="80" as="geometry" />
        </mxCell>
        <mxCell id="aZLtah4FaSohj_3vMDlb-11" value="state = &quot;Ready&quot;&lt;div&gt;Experiment = &quot;Stop&quot;&lt;/div&gt;" style="ellipse;whiteSpace=wrap;html=1;" vertex="1" parent="1">
          <mxGeometry x="160" y="720" width="120" height="80" as="geometry" />
        </mxCell>
        <mxCell id="aZLtah4FaSohj_3vMDlb-24" value="" style="rounded=0;whiteSpace=wrap;html=1;fillColor=none;strokeColor=#b85450;strokeWidth=4;" vertex="1" parent="1">
          <mxGeometry x="130" y="40" width="630" height="450" as="geometry" />
        </mxCell>
        <mxCell id="aZLtah4FaSohj_3vMDlb-25" value="" style="rounded=0;whiteSpace=wrap;html=1;fillColor=none;strokeColor=#6c8ebf;strokeWidth=4;" vertex="1" parent="1">
          <mxGeometry x="130" y="490" width="190" height="330" as="geometry" />
        </mxCell>
        <mxCell id="aZLtah4FaSohj_3vMDlb-27" value="&lt;h1 style=&quot;margin-top: 0px;&quot;&gt;EStop&lt;/h1&gt;&lt;div&gt;&lt;ul&gt;&lt;li&gt;drain all water&lt;/li&gt;&lt;li&gt;open all ports&lt;/li&gt;&lt;/ul&gt;&lt;/div&gt;" style="text;html=1;whiteSpace=wrap;overflow=hidden;rounded=0;" vertex="1" parent="1">
          <mxGeometry x="310" y="60" width="130" height="90" as="geometry" />
        </mxCell>
        <mxCell id="aZLtah4FaSohj_3vMDlb-28" value="&lt;h1 style=&quot;margin-top: 0px;&quot;&gt;IDLE&lt;/h1&gt;&lt;div&gt;&lt;ul&gt;&lt;li&gt;Waiting for a fill command&lt;/li&gt;&lt;/ul&gt;&lt;/div&gt;" style="text;html=1;whiteSpace=wrap;overflow=hidden;rounded=0;" vertex="1" parent="1">
          <mxGeometry x="305" y="180" width="115" height="90" as="geometry" />
        </mxCell>
        <mxCell id="aZLtah4FaSohj_3vMDlb-30" value="&lt;h1 style=&quot;margin-top: 0px;&quot;&gt;XXX Fill&lt;/h1&gt;&lt;div&gt;&lt;ul&gt;&lt;li&gt;Turn on pumps&lt;/li&gt;&lt;li&gt;Close ports&lt;/li&gt;&lt;/ul&gt;&lt;/div&gt;" style="text;html=1;whiteSpace=wrap;overflow=hidden;rounded=0;" vertex="1" parent="1">
          <mxGeometry x="505" y="180" width="155" height="90" as="geometry" />
        </mxCell>
        <mxCell id="aZLtah4FaSohj_3vMDlb-31" value="&lt;h1 style=&quot;margin-top: 0px;&quot;&gt;Ready - Reset&lt;/h1&gt;&lt;div&gt;&lt;ul&gt;&lt;li&gt;close the current file&lt;/li&gt;&lt;li&gt;Create a new file&lt;/li&gt;&lt;li&gt;prepare for a new experiment&lt;/li&gt;&lt;/ul&gt;&lt;/div&gt;" style="text;html=1;whiteSpace=wrap;overflow=hidden;rounded=0;" vertex="1" parent="1">
          <mxGeometry x="330" y="510" width="210" height="90" as="geometry" />
        </mxCell>
        <mxCell id="aZLtah4FaSohj_3vMDlb-32" value="&lt;h1 style=&quot;margin-top: 0px;&quot;&gt;Ready - Start&lt;/h1&gt;&lt;div&gt;&lt;ul&gt;&lt;li&gt;Start data capture&lt;/li&gt;&lt;li&gt;Start logging&lt;/li&gt;&lt;/ul&gt;&lt;/div&gt;" style="text;html=1;whiteSpace=wrap;overflow=hidden;rounded=0;" vertex="1" parent="1">
          <mxGeometry x="330" y="610" width="210" height="90" as="geometry" />
        </mxCell>
        <mxCell id="aZLtah4FaSohj_3vMDlb-33" value="&lt;h1 style=&quot;margin-top: 0px;&quot;&gt;Ready - Stop&lt;/h1&gt;&lt;div&gt;&lt;ul&gt;&lt;li&gt;Pause data capture and logging&lt;/li&gt;&lt;/ul&gt;&lt;/div&gt;" style="text;html=1;whiteSpace=wrap;overflow=hidden;rounded=0;" vertex="1" parent="1">
          <mxGeometry x="330" y="720" width="210" height="90" as="geometry" />
        </mxCell>
      </root>
    </mxGraphModel>
  </diagram>
</mxfile>
